<?xml version="1.0" encoding="UTF-8" standalone="no"?>
<!DOCTYPE svg PUBLIC "-//W3C//DTD SVG 1.1//EN"
 "http://www.w3.org/Graphics/SVG/1.1/DTD/svg11.dtd">
<!-- Generated by graphviz version 2.40.1 (20161225.0304)
 -->
<!-- Title: snakemake_dag Pages: 1 -->
<svg width="673pt" height="658pt"
 viewBox="0.00 0.00 673.00 658.00" xmlns="http://www.w3.org/2000/svg" xmlns:xlink="http://www.w3.org/1999/xlink">
<g id="graph0" class="graph" transform="scale(1 1) rotate(0) translate(4 654)">
<title>snakemake_dag</title>
<polygon fill="#ffffff" stroke="transparent" points="-4,4 -4,-654 669,-654 669,4 -4,4"/>
<!-- 0 -->
<g id="node1" class="node">
<title>0</title>
<path fill="none" stroke="#56a9d8" stroke-width="2" d="M256.5,-36C256.5,-36 226.5,-36 226.5,-36 220.5,-36 214.5,-30 214.5,-24 214.5,-24 214.5,-12 214.5,-12 214.5,-6 220.5,0 226.5,0 226.5,0 256.5,0 256.5,0 262.5,0 268.5,-6 268.5,-12 268.5,-12 268.5,-24 268.5,-24 268.5,-30 262.5,-36 256.5,-36"/>
<text text-anchor="middle" x="241.5" y="-15.5" font-family="sans" font-size="10.00" fill="#000000">all</text>
</g>
<!-- 1 -->
<g id="node2" class="node">
<title>1</title>
<path fill="none" stroke="#8fd856" stroke-width="2" stroke-dasharray="5,2" d="M125,-650C125,-650 12,-650 12,-650 6,-650 0,-644 0,-638 0,-638 0,-626 0,-626 0,-620 6,-614 12,-614 12,-614 125,-614 125,-614 131,-614 137,-620 137,-626 137,-626 137,-638 137,-638 137,-644 131,-650 125,-650"/>
<text text-anchor="middle" x="68.5" y="-635" font-family="sans" font-size="10.00" fill="#000000">removeChr0</text>
<text text-anchor="middle" x="68.5" y="-624" font-family="sans" font-size="10.00" fill="#000000">stm: melissa_wilson.raw</text>
</g>
<!-- 1&#45;&gt;0 -->
<g id="edge1" class="edge">
<title>1&#45;&gt;0</title>
<path fill="none" stroke="#c0c0c0" stroke-width="2" d="M60.8653,-613.7257C50.2979,-586.7325 32.5,-534.3849 32.5,-488 32.5,-488 32.5,-488 32.5,-200 32.5,-140.9039 27.3101,-114.3761 68.5,-72 87.4213,-52.5338 159.4376,-34.7752 204.3738,-25.2667"/>
<polygon fill="#c0c0c0" stroke="#c0c0c0" stroke-width="2" points="205.2635,-28.6567 214.3439,-23.198 203.8413,-21.8027 205.2635,-28.6567"/>
</g>
<!-- 2 -->
<g id="node3" class="node">
<title>2</title>
<path fill="none" stroke="#56d0d8" stroke-width="2" stroke-dasharray="5,2" d="M138,-578C138,-578 73,-578 73,-578 67,-578 61,-572 61,-566 61,-566 61,-554 61,-554 61,-548 67,-542 73,-542 73,-542 138,-542 138,-542 144,-542 150,-548 150,-554 150,-554 150,-566 150,-566 150,-572 144,-578 138,-578"/>
<text text-anchor="middle" x="105.5" y="-557.5" font-family="sans" font-size="10.00" fill="#000000">removeINDLES</text>
</g>
<!-- 1&#45;&gt;2 -->
<g id="edge13" class="edge">
<title>1&#45;&gt;2</title>
<path fill="none" stroke="#c0c0c0" stroke-width="2" d="M77.8367,-613.8314C81.9243,-605.8771 86.8104,-596.369 91.3309,-587.5723"/>
<polygon fill="#c0c0c0" stroke="#c0c0c0" stroke-width="2" points="94.5799,-588.9074 96.0376,-578.4133 88.3539,-585.7078 94.5799,-588.9074"/>
</g>
<!-- 2&#45;&gt;0 -->
<g id="edge2" class="edge">
<title>2&#45;&gt;0</title>
<path fill="none" stroke="#c0c0c0" stroke-width="2" d="M98.0774,-541.7059C87.8035,-514.6881 70.5,-462.3101 70.5,-416 70.5,-416 70.5,-416 70.5,-200 70.5,-140.5291 69.4384,-115.9529 109.5,-72 134.2674,-44.8269 174.7144,-31.0086 204.318,-24.1948"/>
<polygon fill="#c0c0c0" stroke="#c0c0c0" stroke-width="2" points="205.2439,-27.5761 214.2934,-22.0664 203.7832,-20.7302 205.2439,-27.5761"/>
</g>
<!-- 3 -->
<g id="node4" class="node">
<title>3</title>
<path fill="none" stroke="#56d86b" stroke-width="2" stroke-dasharray="5,2" d="M196.5,-506C196.5,-506 110.5,-506 110.5,-506 104.5,-506 98.5,-500 98.5,-494 98.5,-494 98.5,-482 98.5,-482 98.5,-476 104.5,-470 110.5,-470 110.5,-470 196.5,-470 196.5,-470 202.5,-470 208.5,-476 208.5,-482 208.5,-482 208.5,-494 208.5,-494 208.5,-500 202.5,-506 196.5,-506"/>
<text text-anchor="middle" x="153.5" y="-485.5" font-family="sans" font-size="10.00" fill="#000000">DupSitesDiffAlleles</text>
</g>
<!-- 2&#45;&gt;3 -->
<g id="edge14" class="edge">
<title>2&#45;&gt;3</title>
<path fill="none" stroke="#c0c0c0" stroke-width="2" d="M117.6124,-541.8314C123.0281,-533.7079 129.5242,-523.9637 135.4921,-515.0118"/>
<polygon fill="#c0c0c0" stroke="#c0c0c0" stroke-width="2" points="138.5896,-516.6753 141.2245,-506.4133 132.7653,-512.7923 138.5896,-516.6753"/>
</g>
<!-- 3&#45;&gt;0 -->
<g id="edge3" class="edge">
<title>3&#45;&gt;0</title>
<path fill="none" stroke="#c0c0c0" stroke-width="2" d="M143.4665,-469.9677C138.0929,-459.6852 131.7284,-446.4098 127.5,-434 114.3149,-395.303 108.5,-384.8816 108.5,-344 108.5,-344 108.5,-344 108.5,-200 108.5,-139.549 116.4817,-118.9992 154.5,-72 167.801,-55.557 187.5285,-42.7346 204.8369,-33.7189"/>
<polygon fill="#c0c0c0" stroke="#c0c0c0" stroke-width="2" points="206.7429,-36.6805 214.1477,-29.1029 203.6336,-30.409 206.7429,-36.6805"/>
</g>
<!-- 4 -->
<g id="node5" class="node">
<title>4</title>
<path fill="none" stroke="#d8cb56" stroke-width="2" stroke-dasharray="5,2" d="M256.5,-434C256.5,-434 148.5,-434 148.5,-434 142.5,-434 136.5,-428 136.5,-422 136.5,-422 136.5,-410 136.5,-410 136.5,-404 142.5,-398 148.5,-398 148.5,-398 256.5,-398 256.5,-398 262.5,-398 268.5,-404 268.5,-410 268.5,-410 268.5,-422 268.5,-422 268.5,-428 262.5,-434 256.5,-434"/>
<text text-anchor="middle" x="202.5" y="-413.5" font-family="sans" font-size="10.00" fill="#000000">RemoveMissMatchDups</text>
</g>
<!-- 3&#45;&gt;4 -->
<g id="edge15" class="edge">
<title>3&#45;&gt;4</title>
<path fill="none" stroke="#c0c0c0" stroke-width="2" d="M165.8648,-469.8314C171.4509,-461.6232 178.163,-451.7606 184.3072,-442.7323"/>
<polygon fill="#c0c0c0" stroke="#c0c0c0" stroke-width="2" points="187.236,-444.6496 189.9687,-434.4133 181.449,-440.7112 187.236,-444.6496"/>
</g>
<!-- 4&#45;&gt;0 -->
<g id="edge4" class="edge">
<title>4&#45;&gt;0</title>
<path fill="none" stroke="#c0c0c0" stroke-width="2" d="M190.3488,-397.7857C173.8788,-371.2865 146.5,-320.0148 146.5,-272 146.5,-272 146.5,-272 146.5,-200 146.5,-138.5552 189.5795,-77.3331 217.719,-43.897"/>
<polygon fill="#c0c0c0" stroke="#c0c0c0" stroke-width="2" points="220.6379,-45.8714 224.5159,-36.0117 215.3358,-41.3011 220.6379,-45.8714"/>
</g>
<!-- 5 -->
<g id="node6" class="node">
<title>5</title>
<path fill="none" stroke="#d85656" stroke-width="2" stroke-dasharray="5,2" d="M284,-362C284,-362 207,-362 207,-362 201,-362 195,-356 195,-350 195,-350 195,-338 195,-338 195,-332 201,-326 207,-326 207,-326 284,-326 284,-326 290,-326 296,-332 296,-338 296,-338 296,-350 296,-350 296,-356 290,-362 284,-362"/>
<text text-anchor="middle" x="245.5" y="-341.5" font-family="sans" font-size="10.00" fill="#000000">MergeMatchDups</text>
</g>
<!-- 4&#45;&gt;5 -->
<g id="edge16" class="edge">
<title>4&#45;&gt;5</title>
<path fill="none" stroke="#c0c0c0" stroke-width="2" d="M213.3507,-397.8314C218.2023,-389.7079 224.0217,-379.9637 229.368,-371.0118"/>
<polygon fill="#c0c0c0" stroke="#c0c0c0" stroke-width="2" points="232.3806,-372.7933 234.5032,-362.4133 226.3708,-369.2041 232.3806,-372.7933"/>
</g>
<!-- 5&#45;&gt;0 -->
<g id="edge5" class="edge">
<title>5&#45;&gt;0</title>
<path fill="none" stroke="#c0c0c0" stroke-width="2" d="M226.45,-325.8859C217.643,-316.1885 208.1254,-303.4808 203.5,-290 174.0397,-204.1369 209.4145,-95.5493 229.484,-45.5253"/>
<polygon fill="#c0c0c0" stroke="#c0c0c0" stroke-width="2" points="232.8158,-46.6261 233.3879,-36.0468 226.3433,-43.9603 232.8158,-46.6261"/>
</g>
<!-- 6 -->
<g id="node7" class="node">
<title>6</title>
<path fill="none" stroke="#d8a456" stroke-width="2" stroke-dasharray="5,2" d="M306,-290C306,-290 225,-290 225,-290 219,-290 213,-284 213,-278 213,-278 213,-266 213,-266 213,-260 219,-254 225,-254 225,-254 306,-254 306,-254 312,-254 318,-260 318,-266 318,-266 318,-278 318,-278 318,-284 312,-290 306,-290"/>
<text text-anchor="middle" x="265.5" y="-269.5" font-family="sans" font-size="10.00" fill="#000000">CountMissingData</text>
</g>
<!-- 5&#45;&gt;6 -->
<g id="edge17" class="edge">
<title>5&#45;&gt;6</title>
<path fill="none" stroke="#c0c0c0" stroke-width="2" d="M250.5468,-325.8314C252.7094,-318.0463 255.2853,-308.7729 257.6848,-300.1347"/>
<polygon fill="#c0c0c0" stroke="#c0c0c0" stroke-width="2" points="261.081,-300.9852 260.3852,-290.4133 254.3364,-299.1117 261.081,-300.9852"/>
</g>
<!-- 7 -->
<g id="node8" class="node">
<title>7</title>
<path fill="none" stroke="#56d892" stroke-width="2" stroke-dasharray="5,2" d="M446.5,-290C446.5,-290 348.5,-290 348.5,-290 342.5,-290 336.5,-284 336.5,-278 336.5,-278 336.5,-266 336.5,-266 336.5,-260 342.5,-254 348.5,-254 348.5,-254 446.5,-254 446.5,-254 452.5,-254 458.5,-260 458.5,-266 458.5,-266 458.5,-278 458.5,-278 458.5,-284 452.5,-290 446.5,-290"/>
<text text-anchor="middle" x="397.5" y="-269.5" font-family="sans" font-size="10.00" fill="#000000">addSelfReportSexInfo</text>
</g>
<!-- 5&#45;&gt;7 -->
<g id="edge18" class="edge">
<title>5&#45;&gt;7</title>
<path fill="none" stroke="#c0c0c0" stroke-width="2" d="M283.856,-325.8314C304.0044,-316.2874 328.8752,-304.5065 350.2083,-294.4013"/>
<polygon fill="#c0c0c0" stroke="#c0c0c0" stroke-width="2" points="351.8807,-297.482 359.4198,-290.038 348.8841,-291.1558 351.8807,-297.482"/>
</g>
<!-- 6&#45;&gt;0 -->
<g id="edge6" class="edge">
<title>6&#45;&gt;0</title>
<path fill="none" stroke="#c0c0c0" stroke-width="2" d="M257.5275,-253.8954C253.4004,-243.5902 248.7623,-230.3163 246.5,-218 235.4015,-157.5781 237.2522,-85.1782 239.4567,-46.1937"/>
<polygon fill="#c0c0c0" stroke="#c0c0c0" stroke-width="2" points="242.9556,-46.3183 240.0774,-36.122 235.9688,-45.8877 242.9556,-46.3183"/>
</g>
<!-- 7&#45;&gt;0 -->
<g id="edge7" class="edge">
<title>7&#45;&gt;0</title>
<path fill="none" stroke="#c0c0c0" stroke-width="2" d="M370.4636,-253.866C356.8319,-244.0694 340.4836,-231.2793 327.5,-218 299.7213,-189.5886 291.5481,-181.8919 274.5,-146 259.0962,-113.5699 250.1952,-72.9738 245.6018,-46.3038"/>
<polygon fill="#c0c0c0" stroke="#c0c0c0" stroke-width="2" points="249.0068,-45.4373 243.9427,-36.1311 242.098,-46.5641 249.0068,-45.4373"/>
</g>
<!-- 8 -->
<g id="node9" class="node">
<title>8</title>
<path fill="none" stroke="#b6d856" stroke-width="2" d="M388.5,-218C388.5,-218 348.5,-218 348.5,-218 342.5,-218 336.5,-212 336.5,-206 336.5,-206 336.5,-194 336.5,-194 336.5,-188 342.5,-182 348.5,-182 348.5,-182 388.5,-182 388.5,-182 394.5,-182 400.5,-188 400.5,-194 400.5,-194 400.5,-206 400.5,-206 400.5,-212 394.5,-218 388.5,-218"/>
<text text-anchor="middle" x="368.5" y="-197.5" font-family="sans" font-size="10.00" fill="#000000">sexCheck</text>
</g>
<!-- 7&#45;&gt;8 -->
<g id="edge19" class="edge">
<title>7&#45;&gt;8</title>
<path fill="none" stroke="#c0c0c0" stroke-width="2" d="M390.1821,-253.8314C387.0124,-245.9617 383.23,-236.5712 379.7187,-227.8533"/>
<polygon fill="#c0c0c0" stroke="#c0c0c0" stroke-width="2" points="382.8992,-226.3815 375.9165,-218.4133 376.4061,-228.9968 382.8992,-226.3815"/>
</g>
<!-- 10 -->
<g id="node11" class="node">
<title>10</title>
<path fill="none" stroke="#d87d56" stroke-width="2" stroke-dasharray="5,2" d="M556,-218C556,-218 437,-218 437,-218 431,-218 425,-212 425,-206 425,-206 425,-194 425,-194 425,-188 431,-182 437,-182 437,-182 556,-182 556,-182 562,-182 568,-188 568,-194 568,-194 568,-206 568,-206 568,-212 562,-218 556,-218"/>
<text text-anchor="middle" x="496.5" y="-197.5" font-family="sans" font-size="10.00" fill="#000000">rmSexDiscrepenciesIndvs</text>
</g>
<!-- 7&#45;&gt;10 -->
<g id="edge21" class="edge">
<title>7&#45;&gt;10</title>
<path fill="none" stroke="#c0c0c0" stroke-width="2" d="M422.4819,-253.8314C434.7928,-244.8779 449.8107,-233.9558 463.0937,-224.2955"/>
<polygon fill="#c0c0c0" stroke="#c0c0c0" stroke-width="2" points="465.4973,-226.8752 471.5261,-218.1628 461.3801,-221.214 465.4973,-226.8752"/>
</g>
<!-- 8&#45;&gt;0 -->
<g id="edge8" class="edge">
<title>8&#45;&gt;0</title>
<path fill="none" stroke="#c0c0c0" stroke-width="2" d="M349.4381,-181.9523C339.3345,-171.8799 327.0699,-158.8102 317.5,-146 294.7345,-115.5263 293.9743,-104.6752 274.5,-72 269.2398,-63.1741 263.4191,-53.5905 258.1493,-44.9805"/>
<polygon fill="#c0c0c0" stroke="#c0c0c0" stroke-width="2" points="261.1174,-43.1253 252.9037,-36.4331 255.1513,-46.7868 261.1174,-43.1253"/>
</g>
<!-- 9 -->
<g id="node10" class="node">
<title>9</title>
<path fill="none" stroke="#56d8b9" stroke-width="2" d="M398,-127C398,-127 339,-127 339,-127 333,-127 327,-121 327,-115 327,-115 327,-103 327,-103 327,-97 333,-91 339,-91 339,-91 398,-91 398,-91 404,-91 410,-97 410,-103 410,-103 410,-115 410,-115 410,-121 404,-127 398,-127"/>
<text text-anchor="middle" x="368.5" y="-106.5" font-family="sans" font-size="10.00" fill="#000000">plotSexCheck</text>
</g>
<!-- 8&#45;&gt;9 -->
<g id="edge20" class="edge">
<title>8&#45;&gt;9</title>
<path fill="none" stroke="#c0c0c0" stroke-width="2" d="M368.5,-181.5848C368.5,-168.9209 368.5,-151.8558 368.5,-137.4541"/>
<polygon fill="#c0c0c0" stroke="#c0c0c0" stroke-width="2" points="372.0001,-137.0772 368.5,-127.0773 365.0001,-137.0773 372.0001,-137.0772"/>
</g>
<!-- 9&#45;&gt;0 -->
<g id="edge9" class="edge">
<title>9&#45;&gt;0</title>
<path fill="none" stroke="#c0c0c0" stroke-width="2" d="M343.1049,-90.8035C323.5504,-76.792 296.3456,-57.2988 275.007,-42.009"/>
<polygon fill="#c0c0c0" stroke="#c0c0c0" stroke-width="2" points="277.0184,-39.1444 266.8511,-36.165 272.9412,-44.8345 277.0184,-39.1444"/>
</g>
<!-- 10&#45;&gt;0 -->
<g id="edge10" class="edge">
<title>10&#45;&gt;0</title>
<path fill="none" stroke="#c0c0c0" stroke-width="2" d="M482.4855,-181.9462C474.7491,-171.6569 465.1814,-158.382 457.5,-146 437.9017,-114.4084 447.1503,-95.6914 418.5,-72 378.2164,-38.6889 317.6415,-25.9076 278.8398,-21.0159"/>
<polygon fill="#c0c0c0" stroke="#c0c0c0" stroke-width="2" points="278.841,-17.4933 268.5081,-19.8349 278.0459,-24.448 278.841,-17.4933"/>
</g>
<!-- 11 -->
<g id="node12" class="node">
<title>11</title>
<path fill="none" stroke="#567bd8" stroke-width="2" d="M526,-146C526,-146 479,-146 479,-146 473,-146 467,-140 467,-134 467,-134 467,-84 467,-84 467,-78 473,-72 479,-72 479,-72 526,-72 526,-72 532,-72 538,-78 538,-84 538,-84 538,-134 538,-134 538,-140 532,-146 526,-146"/>
<text text-anchor="middle" x="502.5" y="-134" font-family="sans" font-size="10.00" fill="#000000">IBD</text>
<text text-anchor="middle" x="502.5" y="-123" font-family="sans" font-size="10.00" fill="#000000">geno: 0.05</text>
<text text-anchor="middle" x="502.5" y="-112" font-family="sans" font-size="10.00" fill="#000000">hwe: 1e&#45;50</text>
<text text-anchor="middle" x="502.5" y="-101" font-family="sans" font-size="10.00" fill="#000000">ldr: 0.2</text>
<text text-anchor="middle" x="502.5" y="-90" font-family="sans" font-size="10.00" fill="#000000">lds: 10</text>
<text text-anchor="middle" x="502.5" y="-79" font-family="sans" font-size="10.00" fill="#000000">ldw: 50</text>
</g>
<!-- 10&#45;&gt;11 -->
<g id="edge22" class="edge">
<title>10&#45;&gt;11</title>
<path fill="none" stroke="#c0c0c0" stroke-width="2" d="M497.7142,-181.5848C498.2018,-174.189 498.7884,-165.2921 499.3812,-156.3013"/>
<polygon fill="#c0c0c0" stroke="#c0c0c0" stroke-width="2" points="502.8826,-156.3941 500.0482,-146.1855 495.8978,-155.9335 502.8826,-156.3941"/>
</g>
<!-- 12 -->
<g id="node13" class="node">
<title>12</title>
<path fill="none" stroke="#68d856" stroke-width="2" stroke-dasharray="5,2" d="M653,-127C653,-127 568,-127 568,-127 562,-127 556,-121 556,-115 556,-115 556,-103 556,-103 556,-97 562,-91 568,-91 568,-91 653,-91 653,-91 659,-91 665,-97 665,-103 665,-103 665,-115 665,-115 665,-121 659,-127 653,-127"/>
<text text-anchor="middle" x="610.5" y="-106.5" font-family="sans" font-size="10.00" fill="#000000">rmRelatedSamples</text>
</g>
<!-- 10&#45;&gt;12 -->
<g id="edge23" class="edge">
<title>10&#45;&gt;12</title>
<path fill="none" stroke="#c0c0c0" stroke-width="2" d="M519.2956,-181.8035C536.6931,-167.916 560.8368,-148.6434 579.9131,-133.4159"/>
<polygon fill="#c0c0c0" stroke="#c0c0c0" stroke-width="2" points="582.112,-136.139 587.7439,-127.165 577.745,-130.6682 582.112,-136.139"/>
</g>
<!-- 11&#45;&gt;0 -->
<g id="edge11" class="edge">
<title>11&#45;&gt;0</title>
<path fill="none" stroke="#c0c0c0" stroke-width="2" d="M466.9496,-80.1866C462.2552,-77.1426 457.3763,-74.3184 452.5,-72 395.0823,-44.7013 322.0686,-29.9675 278.7133,-23.0696"/>
<polygon fill="#c0c0c0" stroke="#c0c0c0" stroke-width="2" points="279.0345,-19.578 268.6193,-21.5205 277.9726,-26.497 279.0345,-19.578"/>
</g>
<!-- 12&#45;&gt;0 -->
<g id="edge12" class="edge">
<title>12&#45;&gt;0</title>
<path fill="none" stroke="#c0c0c0" stroke-width="2" d="M584.1181,-90.9612C572.9474,-84.0764 559.5221,-76.7491 546.5,-72 453.9959,-38.2642 337.7867,-25.162 279.1057,-20.4357"/>
<polygon fill="#c0c0c0" stroke="#c0c0c0" stroke-width="2" points="279.0754,-16.9232 268.8368,-19.6476 278.5397,-23.9026 279.0754,-16.9232"/>
</g>
</g>
</svg>
