<?xml version="1.0" encoding="UTF-8" standalone="no"?>
<!DOCTYPE svg PUBLIC "-//W3C//DTD SVG 1.1//EN"
 "http://www.w3.org/Graphics/SVG/1.1/DTD/svg11.dtd">
<!-- Generated by graphviz version 2.40.1 (20161225.0304)
 -->
<!-- Title: snakemake_dag Pages: 1 -->
<svg width="610pt" height="834pt"
 viewBox="0.00 0.00 609.50 834.00" xmlns="http://www.w3.org/2000/svg" xmlns:xlink="http://www.w3.org/1999/xlink">
<g id="graph0" class="graph" transform="scale(1 1) rotate(0) translate(4 830)">
<title>snakemake_dag</title>
<polygon fill="#ffffff" stroke="transparent" points="-4,4 -4,-830 605.5,-830 605.5,4 -4,4"/>
<!-- 0 -->
<g id="node1" class="node">
<title>0</title>
<path fill="none" stroke="#56c1d8" stroke-width="2" stroke-dasharray="5,2" d="M290.5,-36C290.5,-36 260.5,-36 260.5,-36 254.5,-36 248.5,-30 248.5,-24 248.5,-24 248.5,-12 248.5,-12 248.5,-6 254.5,0 260.5,0 260.5,0 290.5,0 290.5,0 296.5,0 302.5,-6 302.5,-12 302.5,-12 302.5,-24 302.5,-24 302.5,-30 296.5,-36 290.5,-36"/>
<text text-anchor="middle" x="275.5" y="-15.5" font-family="sans" font-size="10.00" fill="#000000">all</text>
</g>
<!-- 1 -->
<g id="node2" class="node">
<title>1</title>
<path fill="none" stroke="#56d89a" stroke-width="2" stroke-dasharray="5,2" d="M93,-466C93,-466 12,-466 12,-466 6,-466 0,-460 0,-454 0,-454 0,-442 0,-442 0,-436 6,-430 12,-430 12,-430 93,-430 93,-430 99,-430 105,-436 105,-442 105,-442 105,-454 105,-454 105,-460 99,-466 93,-466"/>
<text text-anchor="middle" x="52.5" y="-445.5" font-family="sans" font-size="10.00" fill="#000000">CountMissingData</text>
</g>
<!-- 1&#45;&gt;0 -->
<g id="edge1" class="edge">
<title>1&#45;&gt;0</title>
<path fill="none" stroke="#c0c0c0" stroke-width="2" d="M52.5,-429.9096C52.5,-399.8316 52.5,-337.6354 52.5,-285 52.5,-285 52.5,-285 52.5,-186 52.5,-134.6344 36.9185,-109.9807 71.5,-72 93.7566,-47.5557 186.0138,-30.7397 238.5162,-22.9447"/>
<polygon fill="#c0c0c0" stroke="#c0c0c0" stroke-width="2" points="239.0586,-26.4028 248.4541,-21.5064 238.0559,-19.4749 239.0586,-26.4028"/>
</g>
<!-- 2 -->
<g id="node3" class="node">
<title>2</title>
<path fill="none" stroke="#ced856" stroke-width="2" stroke-dasharray="5,2" d="M152,-116C152,-116 93,-116 93,-116 87,-116 81,-110 81,-104 81,-104 81,-92 81,-92 81,-86 87,-80 93,-80 93,-80 152,-80 152,-80 158,-80 164,-86 164,-92 164,-92 164,-104 164,-104 164,-110 158,-116 152,-116"/>
<text text-anchor="middle" x="122.5" y="-95.5" font-family="sans" font-size="10.00" fill="#000000">plotSexCheck</text>
</g>
<!-- 2&#45;&gt;0 -->
<g id="edge2" class="edge">
<title>2&#45;&gt;0</title>
<path fill="none" stroke="#c0c0c0" stroke-width="2" d="M157.2181,-79.8468C181.61,-67.0928 214.1768,-50.0644 238.9623,-37.1047"/>
<polygon fill="#c0c0c0" stroke="#c0c0c0" stroke-width="2" points="240.8074,-40.0896 248.0473,-32.3543 237.5638,-33.8864 240.8074,-40.0896"/>
</g>
<!-- 3 -->
<g id="node4" class="node">
<title>3</title>
<path fill="none" stroke="#80d856" stroke-width="2" stroke-dasharray="5,2" d="M228,-322C228,-322 181,-322 181,-322 175,-322 169,-316 169,-310 169,-310 169,-260 169,-260 169,-254 175,-248 181,-248 181,-248 228,-248 228,-248 234,-248 240,-254 240,-260 240,-260 240,-310 240,-310 240,-316 234,-322 228,-322"/>
<text text-anchor="middle" x="204.5" y="-310" font-family="sans" font-size="10.00" fill="#000000">IBD</text>
<text text-anchor="middle" x="204.5" y="-299" font-family="sans" font-size="10.00" fill="#000000">geno: 0.05</text>
<text text-anchor="middle" x="204.5" y="-288" font-family="sans" font-size="10.00" fill="#000000">hwe: 1e&#45;50</text>
<text text-anchor="middle" x="204.5" y="-277" font-family="sans" font-size="10.00" fill="#000000">ldr: 0.2</text>
<text text-anchor="middle" x="204.5" y="-266" font-family="sans" font-size="10.00" fill="#000000">lds: 10</text>
<text text-anchor="middle" x="204.5" y="-255" font-family="sans" font-size="10.00" fill="#000000">ldw: 50</text>
</g>
<!-- 3&#45;&gt;0 -->
<g id="edge3" class="edge">
<title>3&#45;&gt;0</title>
<path fill="none" stroke="#c0c0c0" stroke-width="2" d="M196.9874,-247.8077C189.9439,-203.5125 184.1429,-128.4321 211.5,-72 217.8278,-58.9469 228.9458,-47.8656 240.1585,-39.2019"/>
<polygon fill="#c0c0c0" stroke="#c0c0c0" stroke-width="2" points="242.2254,-42.0265 248.2727,-33.327 238.1202,-36.3566 242.2254,-42.0265"/>
</g>
<!-- 4 -->
<g id="node5" class="node">
<title>4</title>
<path fill="none" stroke="#61d856" stroke-width="2" stroke-dasharray="5,2" d="M318.5,-124C318.5,-124 232.5,-124 232.5,-124 226.5,-124 220.5,-118 220.5,-112 220.5,-112 220.5,-84 220.5,-84 220.5,-78 226.5,-72 232.5,-72 232.5,-72 318.5,-72 318.5,-72 324.5,-72 330.5,-78 330.5,-84 330.5,-84 330.5,-112 330.5,-112 330.5,-118 324.5,-124 318.5,-124"/>
<text text-anchor="middle" x="275.5" y="-112" font-family="sans" font-size="10.00" fill="#000000">filterYChromosome</text>
<text text-anchor="middle" x="275.5" y="-101" font-family="sans" font-size="10.00" fill="#000000">chrs: 24</text>
<text text-anchor="middle" x="275.5" y="-90" font-family="sans" font-size="10.00" fill="#000000">geno: 0.05</text>
<text text-anchor="middle" x="275.5" y="-79" font-family="sans" font-size="10.00" fill="#000000">hwe: 1e&#45;50</text>
</g>
<!-- 4&#45;&gt;0 -->
<g id="edge4" class="edge">
<title>4&#45;&gt;0</title>
<path fill="none" stroke="#c0c0c0" stroke-width="2" d="M275.5,-71.805C275.5,-63.6026 275.5,-54.5174 275.5,-46.1839"/>
<polygon fill="#c0c0c0" stroke="#c0c0c0" stroke-width="2" points="279.0001,-46.1532 275.5,-36.1532 272.0001,-46.1533 279.0001,-46.1532"/>
</g>
<!-- 5 -->
<g id="node6" class="node">
<title>5</title>
<path fill="none" stroke="#b6d856" stroke-width="2" stroke-dasharray="5,2" d="M349,-212C349,-212 300,-212 300,-212 294,-212 288,-206 288,-200 288,-200 288,-172 288,-172 288,-166 294,-160 300,-160 300,-160 349,-160 349,-160 355,-160 361,-166 361,-172 361,-172 361,-200 361,-200 361,-206 355,-212 349,-212"/>
<text text-anchor="middle" x="324.5" y="-200" font-family="sans" font-size="10.00" fill="#000000">filterMtDNA</text>
<text text-anchor="middle" x="324.5" y="-189" font-family="sans" font-size="10.00" fill="#000000">chrs: 26</text>
<text text-anchor="middle" x="324.5" y="-178" font-family="sans" font-size="10.00" fill="#000000">geno: 0.05</text>
<text text-anchor="middle" x="324.5" y="-167" font-family="sans" font-size="10.00" fill="#000000">hwe: 1e&#45;50</text>
</g>
<!-- 5&#45;&gt;0 -->
<g id="edge5" class="edge">
<title>5&#45;&gt;0</title>
<path fill="none" stroke="#c0c0c0" stroke-width="2" d="M335.7506,-159.8708C344.2891,-135.9329 352.5383,-100.0603 339.5,-72 333.3381,-58.7387 322.138,-47.5619 310.8101,-38.8788"/>
<polygon fill="#c0c0c0" stroke="#c0c0c0" stroke-width="2" points="312.7766,-35.9822 302.6093,-33.0028 308.6995,-41.6723 312.7766,-35.9822"/>
</g>
<!-- 6 -->
<g id="node7" class="node">
<title>6</title>
<path fill="none" stroke="#d88d56" stroke-width="2" stroke-dasharray="5,2" d="M454.5,-124C454.5,-124 398.5,-124 398.5,-124 392.5,-124 386.5,-118 386.5,-112 386.5,-112 386.5,-84 386.5,-84 386.5,-78 392.5,-72 398.5,-72 398.5,-72 454.5,-72 454.5,-72 460.5,-72 466.5,-78 466.5,-84 466.5,-84 466.5,-112 466.5,-112 466.5,-118 460.5,-124 454.5,-124"/>
<text text-anchor="middle" x="426.5" y="-112" font-family="sans" font-size="10.00" fill="#000000">LDfilterAutos</text>
<text text-anchor="middle" x="426.5" y="-101" font-family="sans" font-size="10.00" fill="#000000">ldr: 0.2</text>
<text text-anchor="middle" x="426.5" y="-90" font-family="sans" font-size="10.00" fill="#000000">lds: 10</text>
<text text-anchor="middle" x="426.5" y="-79" font-family="sans" font-size="10.00" fill="#000000">ldw: 50</text>
</g>
<!-- 6&#45;&gt;0 -->
<g id="edge6" class="edge">
<title>6&#45;&gt;0</title>
<path fill="none" stroke="#c0c0c0" stroke-width="2" d="M386.4312,-76.7715C363.2401,-64.4848 334.2808,-49.1422 311.7668,-37.2142"/>
<polygon fill="#c0c0c0" stroke="#c0c0c0" stroke-width="2" points="313.335,-34.0842 302.86,-32.4954 310.0579,-40.2697 313.335,-34.0842"/>
</g>
<!-- 7 -->
<g id="node8" class="node">
<title>7</title>
<path fill="none" stroke="#56d882" stroke-width="2" stroke-dasharray="5,2" d="M559.5,-124C559.5,-124 509.5,-124 509.5,-124 503.5,-124 497.5,-118 497.5,-112 497.5,-112 497.5,-84 497.5,-84 497.5,-78 503.5,-72 509.5,-72 509.5,-72 559.5,-72 559.5,-72 565.5,-72 571.5,-78 571.5,-84 571.5,-84 571.5,-112 571.5,-112 571.5,-118 565.5,-124 559.5,-124"/>
<text text-anchor="middle" x="534.5" y="-112" font-family="sans" font-size="10.00" fill="#000000">LDfilterXChr</text>
<text text-anchor="middle" x="534.5" y="-101" font-family="sans" font-size="10.00" fill="#000000">ldr: 0.2</text>
<text text-anchor="middle" x="534.5" y="-90" font-family="sans" font-size="10.00" fill="#000000">lds: 10</text>
<text text-anchor="middle" x="534.5" y="-79" font-family="sans" font-size="10.00" fill="#000000">ldw: 50</text>
</g>
<!-- 7&#45;&gt;0 -->
<g id="edge7" class="edge">
<title>7&#45;&gt;0</title>
<path fill="none" stroke="#c0c0c0" stroke-width="2" d="M497.3895,-80.6287C490.2047,-77.5563 482.6774,-74.534 475.5,-72 419.8112,-52.3388 353.2768,-35.6828 312.7224,-26.266"/>
<polygon fill="#c0c0c0" stroke="#c0c0c0" stroke-width="2" points="313.2765,-22.8022 302.7467,-23.9742 311.7091,-29.6245 313.2765,-22.8022"/>
</g>
<!-- 8 -->
<g id="node9" class="node">
<title>8</title>
<path fill="none" stroke="#d8ac56" stroke-width="2" stroke-dasharray="5,2" d="M157,-538C157,-538 80,-538 80,-538 74,-538 68,-532 68,-526 68,-526 68,-514 68,-514 68,-508 74,-502 80,-502 80,-502 157,-502 157,-502 163,-502 169,-508 169,-514 169,-514 169,-526 169,-526 169,-532 163,-538 157,-538"/>
<text text-anchor="middle" x="118.5" y="-517.5" font-family="sans" font-size="10.00" fill="#000000">MergeMatchDups</text>
</g>
<!-- 8&#45;&gt;1 -->
<g id="edge8" class="edge">
<title>8&#45;&gt;1</title>
<path fill="none" stroke="#c0c0c0" stroke-width="2" d="M101.8454,-501.8314C94.0886,-493.3694 84.7198,-483.1489 76.239,-473.8971"/>
<polygon fill="#c0c0c0" stroke="#c0c0c0" stroke-width="2" points="78.7162,-471.4198 69.3788,-466.4133 73.5561,-476.1499 78.7162,-471.4198"/>
</g>
<!-- 15 -->
<g id="node16" class="node">
<title>15</title>
<path fill="none" stroke="#568ad8" stroke-width="2" stroke-dasharray="5,2" d="M233.5,-466C233.5,-466 135.5,-466 135.5,-466 129.5,-466 123.5,-460 123.5,-454 123.5,-454 123.5,-442 123.5,-442 123.5,-436 129.5,-430 135.5,-430 135.5,-430 233.5,-430 233.5,-430 239.5,-430 245.5,-436 245.5,-442 245.5,-442 245.5,-454 245.5,-454 245.5,-460 239.5,-466 233.5,-466"/>
<text text-anchor="middle" x="184.5" y="-445.5" font-family="sans" font-size="10.00" fill="#000000">addSelfReportSexInfo</text>
</g>
<!-- 8&#45;&gt;15 -->
<g id="edge22" class="edge">
<title>8&#45;&gt;15</title>
<path fill="none" stroke="#c0c0c0" stroke-width="2" d="M135.1546,-501.8314C142.9114,-493.3694 152.2802,-483.1489 160.761,-473.8971"/>
<polygon fill="#c0c0c0" stroke="#c0c0c0" stroke-width="2" points="163.4439,-476.1499 167.6212,-466.4133 158.2838,-471.4198 163.4439,-476.1499"/>
</g>
<!-- 9 -->
<g id="node10" class="node">
<title>9</title>
<path fill="none" stroke="#56d8d0" stroke-width="2" stroke-dasharray="5,2" d="M142.5,-394C142.5,-394 102.5,-394 102.5,-394 96.5,-394 90.5,-388 90.5,-382 90.5,-382 90.5,-370 90.5,-370 90.5,-364 96.5,-358 102.5,-358 102.5,-358 142.5,-358 142.5,-358 148.5,-358 154.5,-364 154.5,-370 154.5,-370 154.5,-382 154.5,-382 154.5,-388 148.5,-394 142.5,-394"/>
<text text-anchor="middle" x="122.5" y="-373.5" font-family="sans" font-size="10.00" fill="#000000">sexCheck</text>
</g>
<!-- 9&#45;&gt;2 -->
<g id="edge9" class="edge">
<title>9&#45;&gt;2</title>
<path fill="none" stroke="#c0c0c0" stroke-width="2" d="M122.5,-357.7596C122.5,-310.4376 122.5,-183.4579 122.5,-126.4233"/>
<polygon fill="#c0c0c0" stroke="#c0c0c0" stroke-width="2" points="126.0001,-126.3075 122.5,-116.3075 119.0001,-126.3076 126.0001,-126.3075"/>
</g>
<!-- 10 -->
<g id="node11" class="node">
<title>10</title>
<path fill="none" stroke="#97d856" stroke-width="2" stroke-dasharray="5,2" d="M304,-394C304,-394 185,-394 185,-394 179,-394 173,-388 173,-382 173,-382 173,-370 173,-370 173,-364 179,-358 185,-358 185,-358 304,-358 304,-358 310,-358 316,-364 316,-370 316,-370 316,-382 316,-382 316,-388 310,-394 304,-394"/>
<text text-anchor="middle" x="244.5" y="-373.5" font-family="sans" font-size="10.00" fill="#000000">rmSexDiscrepenciesIndvs</text>
</g>
<!-- 10&#45;&gt;3 -->
<g id="edge10" class="edge">
<title>10&#45;&gt;3</title>
<path fill="none" stroke="#c0c0c0" stroke-width="2" d="M236.4054,-357.5848C233.0496,-349.9504 228.9908,-340.7166 224.9092,-331.431"/>
<polygon fill="#c0c0c0" stroke="#c0c0c0" stroke-width="2" points="228.0735,-329.9317 220.8453,-322.1855 221.6652,-332.7485 228.0735,-329.9317"/>
</g>
<!-- 11 -->
<g id="node12" class="node">
<title>11</title>
<path fill="none" stroke="#d8c356" stroke-width="2" stroke-dasharray="5,2" d="M367,-303C367,-303 282,-303 282,-303 276,-303 270,-297 270,-291 270,-291 270,-279 270,-279 270,-273 276,-267 282,-267 282,-267 367,-267 367,-267 373,-267 379,-273 379,-279 379,-279 379,-291 379,-291 379,-297 373,-303 367,-303"/>
<text text-anchor="middle" x="324.5" y="-282.5" font-family="sans" font-size="10.00" fill="#000000">rmRelatedSamples</text>
</g>
<!-- 10&#45;&gt;11 -->
<g id="edge18" class="edge">
<title>10&#45;&gt;11</title>
<path fill="none" stroke="#c0c0c0" stroke-width="2" d="M260.6892,-357.5848C272.4772,-344.176 288.603,-325.8329 301.6941,-310.9417"/>
<polygon fill="#c0c0c0" stroke="#c0c0c0" stroke-width="2" points="304.634,-312.8986 308.6079,-303.0773 299.3767,-308.2768 304.634,-312.8986"/>
</g>
<!-- 11&#45;&gt;4 -->
<g id="edge11" class="edge">
<title>11&#45;&gt;4</title>
<path fill="none" stroke="#c0c0c0" stroke-width="2" d="M309.1564,-266.8695C298.3387,-252.8759 284.7136,-232.5003 278.5,-212 270.9147,-186.974 270.358,-157.4253 271.5963,-134.6828"/>
<polygon fill="#c0c0c0" stroke="#c0c0c0" stroke-width="2" points="275.1067,-134.6507 272.299,-124.4347 268.1231,-134.1718 275.1067,-134.6507"/>
</g>
<!-- 11&#45;&gt;5 -->
<g id="edge12" class="edge">
<title>11&#45;&gt;5</title>
<path fill="none" stroke="#c0c0c0" stroke-width="2" d="M324.5,-266.8419C324.5,-254.4147 324.5,-237.5103 324.5,-222.3717"/>
<polygon fill="#c0c0c0" stroke="#c0c0c0" stroke-width="2" points="328.0001,-222.25 324.5,-212.25 321.0001,-222.25 328.0001,-222.25"/>
</g>
<!-- 12 -->
<g id="node13" class="node">
<title>12</title>
<path fill="none" stroke="#56d863" stroke-width="2" stroke-dasharray="5,2" d="M461.5,-212C461.5,-212 391.5,-212 391.5,-212 385.5,-212 379.5,-206 379.5,-200 379.5,-200 379.5,-172 379.5,-172 379.5,-166 385.5,-160 391.5,-160 391.5,-160 461.5,-160 461.5,-160 467.5,-160 473.5,-166 473.5,-172 473.5,-172 473.5,-200 473.5,-200 473.5,-206 467.5,-212 461.5,-212"/>
<text text-anchor="middle" x="426.5" y="-200" font-family="sans" font-size="10.00" fill="#000000">filterAutosomes</text>
<text text-anchor="middle" x="426.5" y="-189" font-family="sans" font-size="10.00" fill="#000000">chrs: 1&#45;22</text>
<text text-anchor="middle" x="426.5" y="-178" font-family="sans" font-size="10.00" fill="#000000">geno: 0.05</text>
<text text-anchor="middle" x="426.5" y="-167" font-family="sans" font-size="10.00" fill="#000000">hwe: 1e&#45;50</text>
</g>
<!-- 11&#45;&gt;12 -->
<g id="edge19" class="edge">
<title>11&#45;&gt;12</title>
<path fill="none" stroke="#c0c0c0" stroke-width="2" d="M343.2084,-266.8419C356.8739,-253.5782 375.7943,-235.2144 392.1489,-219.3408"/>
<polygon fill="#c0c0c0" stroke="#c0c0c0" stroke-width="2" points="394.7164,-221.7263 399.4546,-212.25 389.841,-216.7032 394.7164,-221.7263"/>
</g>
<!-- 13 -->
<g id="node14" class="node">
<title>13</title>
<path fill="none" stroke="#d87556" stroke-width="2" stroke-dasharray="5,2" d="M589.5,-212C589.5,-212 503.5,-212 503.5,-212 497.5,-212 491.5,-206 491.5,-200 491.5,-200 491.5,-172 491.5,-172 491.5,-166 497.5,-160 503.5,-160 503.5,-160 589.5,-160 589.5,-160 595.5,-160 601.5,-166 601.5,-172 601.5,-172 601.5,-200 601.5,-200 601.5,-206 595.5,-212 589.5,-212"/>
<text text-anchor="middle" x="546.5" y="-200" font-family="sans" font-size="10.00" fill="#000000">filterXChromosome</text>
<text text-anchor="middle" x="546.5" y="-189" font-family="sans" font-size="10.00" fill="#000000">chrs: 23</text>
<text text-anchor="middle" x="546.5" y="-178" font-family="sans" font-size="10.00" fill="#000000">geno: 0.05</text>
<text text-anchor="middle" x="546.5" y="-167" font-family="sans" font-size="10.00" fill="#000000">hwe: 1e&#45;50</text>
</g>
<!-- 11&#45;&gt;13 -->
<g id="edge20" class="edge">
<title>11&#45;&gt;13</title>
<path fill="none" stroke="#c0c0c0" stroke-width="2" d="M364.9601,-266.957C397.5879,-252.4067 444.1002,-231.6648 481.8757,-214.819"/>
<polygon fill="#c0c0c0" stroke="#c0c0c0" stroke-width="2" points="483.5701,-217.8957 491.2776,-210.6262 480.719,-211.5025 483.5701,-217.8957"/>
</g>
<!-- 12&#45;&gt;6 -->
<g id="edge13" class="edge">
<title>12&#45;&gt;6</title>
<path fill="none" stroke="#c0c0c0" stroke-width="2" d="M426.5,-159.5971C426.5,-151.6068 426.5,-142.6894 426.5,-134.1759"/>
<polygon fill="#c0c0c0" stroke="#c0c0c0" stroke-width="2" points="430.0001,-134.081 426.5,-124.081 423.0001,-134.081 430.0001,-134.081"/>
</g>
<!-- 13&#45;&gt;7 -->
<g id="edge14" class="edge">
<title>13&#45;&gt;7</title>
<path fill="none" stroke="#c0c0c0" stroke-width="2" d="M542.8996,-159.5971C541.81,-151.6068 540.594,-142.6894 539.4331,-134.1759"/>
<polygon fill="#c0c0c0" stroke="#c0c0c0" stroke-width="2" points="542.8756,-133.5164 538.0565,-124.081 535.9398,-134.4622 542.8756,-133.5164"/>
</g>
<!-- 14 -->
<g id="node15" class="node">
<title>14</title>
<path fill="none" stroke="#56d8b9" stroke-width="2" stroke-dasharray="5,2" d="M172.5,-610C172.5,-610 64.5,-610 64.5,-610 58.5,-610 52.5,-604 52.5,-598 52.5,-598 52.5,-586 52.5,-586 52.5,-580 58.5,-574 64.5,-574 64.5,-574 172.5,-574 172.5,-574 178.5,-574 184.5,-580 184.5,-586 184.5,-586 184.5,-598 184.5,-598 184.5,-604 178.5,-610 172.5,-610"/>
<text text-anchor="middle" x="118.5" y="-589.5" font-family="sans" font-size="10.00" fill="#000000">RemoveMissMatchDups</text>
</g>
<!-- 14&#45;&gt;8 -->
<g id="edge15" class="edge">
<title>14&#45;&gt;8</title>
<path fill="none" stroke="#c0c0c0" stroke-width="2" d="M118.5,-573.8314C118.5,-566.131 118.5,-556.9743 118.5,-548.4166"/>
<polygon fill="#c0c0c0" stroke="#c0c0c0" stroke-width="2" points="122.0001,-548.4132 118.5,-538.4133 115.0001,-548.4133 122.0001,-548.4132"/>
</g>
<!-- 15&#45;&gt;9 -->
<g id="edge16" class="edge">
<title>15&#45;&gt;9</title>
<path fill="none" stroke="#c0c0c0" stroke-width="2" d="M168.8548,-429.8314C161.6409,-421.454 152.943,-411.3531 145.0395,-402.1749"/>
<polygon fill="#c0c0c0" stroke="#c0c0c0" stroke-width="2" points="147.5333,-399.7071 138.3559,-394.4133 142.2289,-404.2748 147.5333,-399.7071"/>
</g>
<!-- 15&#45;&gt;10 -->
<g id="edge17" class="edge">
<title>15&#45;&gt;10</title>
<path fill="none" stroke="#c0c0c0" stroke-width="2" d="M199.6405,-429.8314C206.6217,-421.454 215.0391,-411.3531 222.6876,-402.1749"/>
<polygon fill="#c0c0c0" stroke="#c0c0c0" stroke-width="2" points="225.4425,-404.3362 229.1556,-394.4133 220.0649,-399.8548 225.4425,-404.3362"/>
</g>
<!-- 16 -->
<g id="node17" class="node">
<title>16</title>
<path fill="none" stroke="#d85656" stroke-width="2" stroke-dasharray="5,2" d="M161.5,-682C161.5,-682 75.5,-682 75.5,-682 69.5,-682 63.5,-676 63.5,-670 63.5,-670 63.5,-658 63.5,-658 63.5,-652 69.5,-646 75.5,-646 75.5,-646 161.5,-646 161.5,-646 167.5,-646 173.5,-652 173.5,-658 173.5,-658 173.5,-670 173.5,-670 173.5,-676 167.5,-682 161.5,-682"/>
<text text-anchor="middle" x="118.5" y="-661.5" font-family="sans" font-size="10.00" fill="#000000">DupSitesDiffAlleles</text>
</g>
<!-- 16&#45;&gt;14 -->
<g id="edge21" class="edge">
<title>16&#45;&gt;14</title>
<path fill="none" stroke="#c0c0c0" stroke-width="2" d="M118.5,-645.8314C118.5,-638.131 118.5,-628.9743 118.5,-620.4166"/>
<polygon fill="#c0c0c0" stroke="#c0c0c0" stroke-width="2" points="122.0001,-620.4132 118.5,-610.4133 115.0001,-620.4133 122.0001,-620.4132"/>
</g>
<!-- 17 -->
<g id="node18" class="node">
<title>17</title>
<path fill="none" stroke="#56a9d8" stroke-width="2" stroke-dasharray="5,2" d="M151,-754C151,-754 86,-754 86,-754 80,-754 74,-748 74,-742 74,-742 74,-730 74,-730 74,-724 80,-718 86,-718 86,-718 151,-718 151,-718 157,-718 163,-724 163,-730 163,-730 163,-742 163,-742 163,-748 157,-754 151,-754"/>
<text text-anchor="middle" x="118.5" y="-733.5" font-family="sans" font-size="10.00" fill="#000000">removeINDLES</text>
</g>
<!-- 17&#45;&gt;16 -->
<g id="edge23" class="edge">
<title>17&#45;&gt;16</title>
<path fill="none" stroke="#c0c0c0" stroke-width="2" d="M118.5,-717.8314C118.5,-710.131 118.5,-700.9743 118.5,-692.4166"/>
<polygon fill="#c0c0c0" stroke="#c0c0c0" stroke-width="2" points="122.0001,-692.4132 118.5,-682.4133 115.0001,-692.4133 122.0001,-692.4132"/>
</g>
<!-- 18 -->
<g id="node19" class="node">
<title>18</title>
<path fill="none" stroke="#5673d8" stroke-width="2" stroke-dasharray="5,2" d="M175,-826C175,-826 62,-826 62,-826 56,-826 50,-820 50,-814 50,-814 50,-802 50,-802 50,-796 56,-790 62,-790 62,-790 175,-790 175,-790 181,-790 187,-796 187,-802 187,-802 187,-814 187,-814 187,-820 181,-826 175,-826"/>
<text text-anchor="middle" x="118.5" y="-811" font-family="sans" font-size="10.00" fill="#000000">removeChr0</text>
<text text-anchor="middle" x="118.5" y="-800" font-family="sans" font-size="10.00" fill="#000000">stm: melissa_wilson.raw</text>
</g>
<!-- 18&#45;&gt;17 -->
<g id="edge24" class="edge">
<title>18&#45;&gt;17</title>
<path fill="none" stroke="#c0c0c0" stroke-width="2" d="M118.5,-789.8314C118.5,-782.131 118.5,-772.9743 118.5,-764.4166"/>
<polygon fill="#c0c0c0" stroke="#c0c0c0" stroke-width="2" points="122.0001,-764.4132 118.5,-754.4133 115.0001,-764.4133 122.0001,-764.4132"/>
</g>
</g>
</svg>
